<mxfile host="Electron" agent="Mozilla/5.0 (Windows NT 10.0; Win64; x64) AppleWebKit/537.36 (KHTML, like Gecko) draw.io/27.0.9 Chrome/134.0.6998.205 Electron/35.4.0 Safari/537.36" version="27.0.9">
  <diagram name="Страница — 1" id="JaPengc8FPHWAoQb2g5e">
    <mxGraphModel dx="1876" dy="2230" grid="1" gridSize="10" guides="1" tooltips="1" connect="1" arrows="1" fold="1" page="1" pageScale="1" pageWidth="827" pageHeight="1169" math="0" shadow="0">
      <root>
        <mxCell id="0" />
        <mxCell id="1" parent="0" />
        <mxCell id="bwdSb6TmyLtc6f7Dp-ff-1" value="Database" style="swimlane;fontStyle=1;align=center;verticalAlign=top;childLayout=stackLayout;horizontal=1;startSize=26;horizontalStack=0;resizeParent=1;resizeParentMax=0;resizeLast=0;collapsible=1;marginBottom=0;whiteSpace=wrap;html=1;" parent="1" vertex="1">
          <mxGeometry x="900" y="500" width="160" height="90" as="geometry" />
        </mxCell>
        <mxCell id="bwdSb6TmyLtc6f7Dp-ff-3" value="" style="line;strokeWidth=1;fillColor=none;align=left;verticalAlign=middle;spacingTop=-1;spacingLeft=3;spacingRight=3;rotatable=0;labelPosition=right;points=[];portConstraint=eastwest;strokeColor=inherit;" parent="bwdSb6TmyLtc6f7Dp-ff-1" vertex="1">
          <mxGeometry y="26" width="160" height="8" as="geometry" />
        </mxCell>
        <mxCell id="bwdSb6TmyLtc6f7Dp-ff-4" value="+ connect()&lt;div&gt;+ executeQuery()&lt;/div&gt;&lt;div&gt;+ fetchResults()&lt;/div&gt;" style="text;strokeColor=none;fillColor=none;align=left;verticalAlign=top;spacingLeft=4;spacingRight=4;overflow=hidden;rotatable=0;points=[[0,0.5],[1,0.5]];portConstraint=eastwest;whiteSpace=wrap;html=1;" parent="bwdSb6TmyLtc6f7Dp-ff-1" vertex="1">
          <mxGeometry y="34" width="160" height="56" as="geometry" />
        </mxCell>
        <mxCell id="bwdSb6TmyLtc6f7Dp-ff-5" value="User" style="swimlane;fontStyle=1;align=center;verticalAlign=top;childLayout=stackLayout;horizontal=1;startSize=26;horizontalStack=0;resizeParent=1;resizeParentMax=0;resizeLast=0;collapsible=1;marginBottom=0;whiteSpace=wrap;html=1;" parent="1" vertex="1">
          <mxGeometry x="900" y="720" width="160" height="130" as="geometry" />
        </mxCell>
        <mxCell id="bwdSb6TmyLtc6f7Dp-ff-6" value="- userid: int&lt;div&gt;- username: string&lt;/div&gt;" style="text;strokeColor=none;fillColor=none;align=left;verticalAlign=top;spacingLeft=4;spacingRight=4;overflow=hidden;rotatable=0;points=[[0,0.5],[1,0.5]];portConstraint=eastwest;whiteSpace=wrap;html=1;" parent="bwdSb6TmyLtc6f7Dp-ff-5" vertex="1">
          <mxGeometry y="26" width="160" height="44" as="geometry" />
        </mxCell>
        <mxCell id="bwdSb6TmyLtc6f7Dp-ff-7" value="" style="line;strokeWidth=1;fillColor=none;align=left;verticalAlign=middle;spacingTop=-1;spacingLeft=3;spacingRight=3;rotatable=0;labelPosition=right;points=[];portConstraint=eastwest;strokeColor=inherit;" parent="bwdSb6TmyLtc6f7Dp-ff-5" vertex="1">
          <mxGeometry y="70" width="160" height="8" as="geometry" />
        </mxCell>
        <mxCell id="bwdSb6TmyLtc6f7Dp-ff-8" value="+ delete()&lt;div&gt;+ add()&lt;/div&gt;&lt;div&gt;+ edit()&amp;nbsp;&lt;/div&gt;" style="text;strokeColor=none;fillColor=none;align=left;verticalAlign=top;spacingLeft=4;spacingRight=4;overflow=hidden;rotatable=0;points=[[0,0.5],[1,0.5]];portConstraint=eastwest;whiteSpace=wrap;html=1;" parent="bwdSb6TmyLtc6f7Dp-ff-5" vertex="1">
          <mxGeometry y="78" width="160" height="52" as="geometry" />
        </mxCell>
        <mxCell id="bwdSb6TmyLtc6f7Dp-ff-9" value="Movies" style="swimlane;fontStyle=1;align=center;verticalAlign=top;childLayout=stackLayout;horizontal=1;startSize=26;horizontalStack=0;resizeParent=1;resizeParentMax=0;resizeLast=0;collapsible=1;marginBottom=0;whiteSpace=wrap;html=1;" parent="1" vertex="1">
          <mxGeometry x="600" y="-200" width="160" height="320" as="geometry" />
        </mxCell>
        <mxCell id="bwdSb6TmyLtc6f7Dp-ff-10" value="- movieid: int&lt;div&gt;- moviеname: string&lt;/div&gt;&lt;div&gt;- file: blob&lt;/div&gt;&lt;div&gt;- url: string&lt;/div&gt;&lt;div&gt;- photo: image&lt;/div&gt;&lt;div&gt;- description: string&lt;/div&gt;&lt;div&gt;- rating: int&lt;/div&gt;&lt;div&gt;- сountry: string&lt;/div&gt;&lt;div&gt;-&amp;nbsp;year: int&lt;/div&gt;&lt;div&gt;- genre: string&lt;/div&gt;&lt;div&gt;- age: int&lt;/div&gt;&lt;div&gt;- time: int&lt;/div&gt;&lt;div&gt;- actors: string&lt;/div&gt;&lt;div&gt;&lt;br&gt;&lt;/div&gt;&lt;div&gt;&lt;br&gt;&lt;/div&gt;" style="text;strokeColor=none;fillColor=none;align=left;verticalAlign=top;spacingLeft=4;spacingRight=4;overflow=hidden;rotatable=0;points=[[0,0.5],[1,0.5]];portConstraint=eastwest;whiteSpace=wrap;html=1;" parent="bwdSb6TmyLtc6f7Dp-ff-9" vertex="1">
          <mxGeometry y="26" width="160" height="214" as="geometry" />
        </mxCell>
        <mxCell id="bwdSb6TmyLtc6f7Dp-ff-11" value="" style="line;strokeWidth=1;fillColor=none;align=left;verticalAlign=middle;spacingTop=-1;spacingLeft=3;spacingRight=3;rotatable=0;labelPosition=right;points=[];portConstraint=eastwest;strokeColor=inherit;" parent="bwdSb6TmyLtc6f7Dp-ff-9" vertex="1">
          <mxGeometry y="240" width="160" height="8" as="geometry" />
        </mxCell>
        <mxCell id="bwdSb6TmyLtc6f7Dp-ff-12" value="+ delete()&lt;div&gt;+ add()&lt;/div&gt;&lt;div&gt;+ follow the link()&amp;nbsp;&lt;/div&gt;&lt;div&gt;+&amp;nbsp;&lt;span style=&quot;background-color: transparent; color: light-dark(rgb(0, 0, 0), rgb(255, 255, 255));&quot;&gt;view()&lt;/span&gt;&lt;/div&gt;" style="text;strokeColor=none;fillColor=none;align=left;verticalAlign=top;spacingLeft=4;spacingRight=4;overflow=hidden;rotatable=0;points=[[0,0.5],[1,0.5]];portConstraint=eastwest;whiteSpace=wrap;html=1;" parent="bwdSb6TmyLtc6f7Dp-ff-9" vertex="1">
          <mxGeometry y="248" width="160" height="72" as="geometry" />
        </mxCell>
        <mxCell id="bwdSb6TmyLtc6f7Dp-ff-13" value="Series" style="swimlane;fontStyle=1;align=center;verticalAlign=top;childLayout=stackLayout;horizontal=1;startSize=26;horizontalStack=0;resizeParent=1;resizeParentMax=0;resizeLast=0;collapsible=1;marginBottom=0;whiteSpace=wrap;html=1;" parent="1" vertex="1">
          <mxGeometry x="1480" y="80" width="160" height="350" as="geometry" />
        </mxCell>
        <mxCell id="bwdSb6TmyLtc6f7Dp-ff-14" value="- seriesid: int&lt;div&gt;- seriesname: string&lt;/div&gt;&lt;div&gt;- file: blob&lt;/div&gt;&lt;div&gt;- url: string&lt;/div&gt;&lt;div&gt;- photo: image&lt;/div&gt;&lt;div&gt;- description: string&lt;/div&gt;&lt;div&gt;- rating: int&lt;/div&gt;&lt;div&gt;- сountry: string&lt;/div&gt;&lt;div&gt;-&amp;nbsp;year: int&lt;/div&gt;&lt;div&gt;- genre: string&lt;/div&gt;&lt;div&gt;- age: int&lt;/div&gt;&lt;div&gt;- time: int&lt;/div&gt;&lt;div&gt;- actors: string&lt;/div&gt;&lt;div&gt;-&amp;nbsp;number of episodes: int&lt;/div&gt;&lt;div&gt;-&amp;nbsp;number of seasons: int&lt;/div&gt;&lt;div&gt;&lt;br&gt;&lt;/div&gt;&lt;div&gt;&lt;br&gt;&lt;/div&gt;" style="text;strokeColor=none;fillColor=none;align=left;verticalAlign=top;spacingLeft=4;spacingRight=4;overflow=hidden;rotatable=0;points=[[0,0.5],[1,0.5]];portConstraint=eastwest;whiteSpace=wrap;html=1;" parent="bwdSb6TmyLtc6f7Dp-ff-13" vertex="1">
          <mxGeometry y="26" width="160" height="224" as="geometry" />
        </mxCell>
        <mxCell id="bwdSb6TmyLtc6f7Dp-ff-15" value="" style="line;strokeWidth=1;fillColor=none;align=left;verticalAlign=middle;spacingTop=-1;spacingLeft=3;spacingRight=3;rotatable=0;labelPosition=right;points=[];portConstraint=eastwest;strokeColor=inherit;" parent="bwdSb6TmyLtc6f7Dp-ff-13" vertex="1">
          <mxGeometry y="250" width="160" height="8" as="geometry" />
        </mxCell>
        <mxCell id="bwdSb6TmyLtc6f7Dp-ff-16" value="+ delete()&lt;div&gt;+ add()&lt;/div&gt;&lt;div&gt;+ follow the link()&amp;nbsp;&lt;/div&gt;&lt;div&gt;+&amp;nbsp;&lt;span style=&quot;background-color: transparent; color: light-dark(rgb(0, 0, 0), rgb(255, 255, 255));&quot;&gt;view()&lt;/span&gt;&lt;/div&gt;&lt;div&gt;+ series selection()&lt;/div&gt;" style="text;strokeColor=none;fillColor=none;align=left;verticalAlign=top;spacingLeft=4;spacingRight=4;overflow=hidden;rotatable=0;points=[[0,0.5],[1,0.5]];portConstraint=eastwest;whiteSpace=wrap;html=1;" parent="bwdSb6TmyLtc6f7Dp-ff-13" vertex="1">
          <mxGeometry y="258" width="160" height="92" as="geometry" />
        </mxCell>
        <mxCell id="bwdSb6TmyLtc6f7Dp-ff-17" value="Books" style="swimlane;fontStyle=1;align=center;verticalAlign=top;childLayout=stackLayout;horizontal=1;startSize=26;horizontalStack=0;resizeParent=1;resizeParentMax=0;resizeLast=0;collapsible=1;marginBottom=0;whiteSpace=wrap;html=1;" parent="1" vertex="1">
          <mxGeometry x="320" y="80" width="160" height="360" as="geometry" />
        </mxCell>
        <mxCell id="bwdSb6TmyLtc6f7Dp-ff-18" value="- bookid: int&lt;div&gt;- bookname: string&lt;/div&gt;&lt;div&gt;- file: string, byte[], blob&lt;/div&gt;&lt;div&gt;- url: string&lt;/div&gt;&lt;div&gt;- photo: image&lt;/div&gt;&lt;div&gt;- description: string&lt;/div&gt;&lt;div&gt;- rating: int&lt;/div&gt;&lt;div&gt;- language: string&lt;/div&gt;&lt;div&gt;-&amp;nbsp;author: string&lt;/div&gt;&lt;div&gt;-&amp;nbsp;number of pages: int&lt;/div&gt;&lt;div&gt;- series: string&lt;/div&gt;&lt;div&gt;- publishing house: string&lt;/div&gt;&lt;div&gt;- translator: string&lt;/div&gt;&lt;div&gt;-&amp;nbsp;year: int&lt;/div&gt;&lt;div&gt;- genre: string&lt;/div&gt;&lt;div&gt;- age: int&lt;/div&gt;&lt;div&gt;&lt;br&gt;&lt;/div&gt;&lt;div&gt;&lt;br&gt;&lt;/div&gt;" style="text;strokeColor=none;fillColor=none;align=left;verticalAlign=top;spacingLeft=4;spacingRight=4;overflow=hidden;rotatable=0;points=[[0,0.5],[1,0.5]];portConstraint=eastwest;whiteSpace=wrap;html=1;" parent="bwdSb6TmyLtc6f7Dp-ff-17" vertex="1">
          <mxGeometry y="26" width="160" height="244" as="geometry" />
        </mxCell>
        <mxCell id="bwdSb6TmyLtc6f7Dp-ff-19" value="" style="line;strokeWidth=1;fillColor=none;align=left;verticalAlign=middle;spacingTop=-1;spacingLeft=3;spacingRight=3;rotatable=0;labelPosition=right;points=[];portConstraint=eastwest;strokeColor=inherit;" parent="bwdSb6TmyLtc6f7Dp-ff-17" vertex="1">
          <mxGeometry y="270" width="160" height="8" as="geometry" />
        </mxCell>
        <mxCell id="bwdSb6TmyLtc6f7Dp-ff-20" value="+ delete()&lt;div&gt;+ add()&lt;/div&gt;&lt;div&gt;+ follow the link()&amp;nbsp;&lt;/div&gt;&lt;div&gt;+ read()&lt;/div&gt;&lt;div&gt;+ download()&lt;/div&gt;" style="text;strokeColor=none;fillColor=none;align=left;verticalAlign=top;spacingLeft=4;spacingRight=4;overflow=hidden;rotatable=0;points=[[0,0.5],[1,0.5]];portConstraint=eastwest;whiteSpace=wrap;html=1;" parent="bwdSb6TmyLtc6f7Dp-ff-17" vertex="1">
          <mxGeometry y="278" width="160" height="82" as="geometry" />
        </mxCell>
        <mxCell id="bwdSb6TmyLtc6f7Dp-ff-21" value="Notes for books" style="swimlane;fontStyle=1;align=center;verticalAlign=top;childLayout=stackLayout;horizontal=1;startSize=26;horizontalStack=0;resizeParent=1;resizeParentMax=0;resizeLast=0;collapsible=1;marginBottom=0;whiteSpace=wrap;html=1;" parent="1" vertex="1">
          <mxGeometry x="480" y="1130" width="160" height="200" as="geometry" />
        </mxCell>
        <mxCell id="bwdSb6TmyLtc6f7Dp-ff-22" value="&lt;div&gt;- notesid: int&lt;/div&gt;&lt;div&gt;- notesname: string&lt;/div&gt;&lt;div&gt;- posts: string&lt;/div&gt;&lt;div&gt;- lists: string&lt;/div&gt;&lt;div&gt;- datе: int&lt;/div&gt;&lt;div&gt;- book: string&lt;/div&gt;&lt;div&gt;&lt;br&gt;&lt;/div&gt;" style="text;strokeColor=none;fillColor=none;align=left;verticalAlign=top;spacingLeft=4;spacingRight=4;overflow=hidden;rotatable=0;points=[[0,0.5],[1,0.5]];portConstraint=eastwest;whiteSpace=wrap;html=1;" parent="bwdSb6TmyLtc6f7Dp-ff-21" vertex="1">
          <mxGeometry y="26" width="160" height="94" as="geometry" />
        </mxCell>
        <mxCell id="bwdSb6TmyLtc6f7Dp-ff-23" value="" style="line;strokeWidth=1;fillColor=none;align=left;verticalAlign=middle;spacingTop=-1;spacingLeft=3;spacingRight=3;rotatable=0;labelPosition=right;points=[];portConstraint=eastwest;strokeColor=inherit;" parent="bwdSb6TmyLtc6f7Dp-ff-21" vertex="1">
          <mxGeometry y="120" width="160" height="8" as="geometry" />
        </mxCell>
        <mxCell id="bwdSb6TmyLtc6f7Dp-ff-24" value="+ delete()&lt;div&gt;+ add()&lt;/div&gt;&lt;div&gt;+edit()&lt;span style=&quot;background-color: transparent; color: light-dark(rgb(0, 0, 0), rgb(255, 255, 255));&quot;&gt;&amp;nbsp;&lt;/span&gt;&lt;/div&gt;&lt;div&gt;+ view()&lt;/div&gt;" style="text;strokeColor=none;fillColor=none;align=left;verticalAlign=top;spacingLeft=4;spacingRight=4;overflow=hidden;rotatable=0;points=[[0,0.5],[1,0.5]];portConstraint=eastwest;whiteSpace=wrap;html=1;" parent="bwdSb6TmyLtc6f7Dp-ff-21" vertex="1">
          <mxGeometry y="128" width="160" height="72" as="geometry" />
        </mxCell>
        <mxCell id="bwdSb6TmyLtc6f7Dp-ff-25" value="Bookmarks fot books" style="swimlane;fontStyle=1;align=center;verticalAlign=top;childLayout=stackLayout;horizontal=1;startSize=26;horizontalStack=0;resizeParent=1;resizeParentMax=0;resizeLast=0;collapsible=1;marginBottom=0;whiteSpace=wrap;html=1;" parent="1" vertex="1">
          <mxGeometry x="400" y="650" width="160" height="160" as="geometry" />
        </mxCell>
        <mxCell id="bwdSb6TmyLtc6f7Dp-ff-26" value="- bookmarksid: int&lt;div&gt;-&amp;nbsp;&lt;span style=&quot;background-color: transparent; color: light-dark(rgb(0, 0, 0), rgb(255, 255, 255));&quot;&gt;bookmarksname: string&lt;/span&gt;&lt;/div&gt;&lt;div&gt;&lt;span style=&quot;background-color: transparent; color: light-dark(rgb(0, 0, 0), rgb(255, 255, 255));&quot;&gt;- p&lt;/span&gt;&lt;span style=&quot;background-color: transparent;&quot;&gt;age number: int&lt;/span&gt;&lt;/div&gt;&lt;div&gt;&lt;span style=&quot;background-color: transparent;&quot;&gt;- b&lt;/span&gt;&lt;span style=&quot;background-color: transparent;&quot;&gt;ook title: string&lt;/span&gt;&lt;/div&gt;" style="text;strokeColor=none;fillColor=none;align=left;verticalAlign=top;spacingLeft=4;spacingRight=4;overflow=hidden;rotatable=0;points=[[0,0.5],[1,0.5]];portConstraint=eastwest;whiteSpace=wrap;html=1;" parent="bwdSb6TmyLtc6f7Dp-ff-25" vertex="1">
          <mxGeometry y="26" width="160" height="64" as="geometry" />
        </mxCell>
        <mxCell id="bwdSb6TmyLtc6f7Dp-ff-27" value="" style="line;strokeWidth=1;fillColor=none;align=left;verticalAlign=middle;spacingTop=-1;spacingLeft=3;spacingRight=3;rotatable=0;labelPosition=right;points=[];portConstraint=eastwest;strokeColor=inherit;" parent="bwdSb6TmyLtc6f7Dp-ff-25" vertex="1">
          <mxGeometry y="90" width="160" height="8" as="geometry" />
        </mxCell>
        <mxCell id="bwdSb6TmyLtc6f7Dp-ff-28" value="+ delete()&lt;div&gt;+ add()&lt;/div&gt;&lt;div&gt;+ edit()&amp;nbsp;&lt;/div&gt;" style="text;strokeColor=none;fillColor=none;align=left;verticalAlign=top;spacingLeft=4;spacingRight=4;overflow=hidden;rotatable=0;points=[[0,0.5],[1,0.5]];portConstraint=eastwest;whiteSpace=wrap;html=1;" parent="bwdSb6TmyLtc6f7Dp-ff-25" vertex="1">
          <mxGeometry y="98" width="160" height="62" as="geometry" />
        </mxCell>
        <mxCell id="bwdSb6TmyLtc6f7Dp-ff-33" value="Favorites for books" style="swimlane;fontStyle=1;align=center;verticalAlign=top;childLayout=stackLayout;horizontal=1;startSize=26;horizontalStack=0;resizeParent=1;resizeParentMax=0;resizeLast=0;collapsible=1;marginBottom=0;whiteSpace=wrap;html=1;" parent="1" vertex="1">
          <mxGeometry x="360" y="480" width="160" height="130" as="geometry" />
        </mxCell>
        <mxCell id="bwdSb6TmyLtc6f7Dp-ff-34" value="- Favoritesid: int&lt;div&gt;- username: string&lt;/div&gt;&lt;div&gt;&lt;br&gt;&lt;/div&gt;" style="text;strokeColor=none;fillColor=none;align=left;verticalAlign=top;spacingLeft=4;spacingRight=4;overflow=hidden;rotatable=0;points=[[0,0.5],[1,0.5]];portConstraint=eastwest;whiteSpace=wrap;html=1;" parent="bwdSb6TmyLtc6f7Dp-ff-33" vertex="1">
          <mxGeometry y="26" width="160" height="44" as="geometry" />
        </mxCell>
        <mxCell id="bwdSb6TmyLtc6f7Dp-ff-35" value="" style="line;strokeWidth=1;fillColor=none;align=left;verticalAlign=middle;spacingTop=-1;spacingLeft=3;spacingRight=3;rotatable=0;labelPosition=right;points=[];portConstraint=eastwest;strokeColor=inherit;" parent="bwdSb6TmyLtc6f7Dp-ff-33" vertex="1">
          <mxGeometry y="70" width="160" height="8" as="geometry" />
        </mxCell>
        <mxCell id="bwdSb6TmyLtc6f7Dp-ff-36" value="+ delete()&lt;div&gt;+ add()&lt;/div&gt;&lt;div&gt;+ edit()&amp;nbsp;&lt;/div&gt;" style="text;strokeColor=none;fillColor=none;align=left;verticalAlign=top;spacingLeft=4;spacingRight=4;overflow=hidden;rotatable=0;points=[[0,0.5],[1,0.5]];portConstraint=eastwest;whiteSpace=wrap;html=1;" parent="bwdSb6TmyLtc6f7Dp-ff-33" vertex="1">
          <mxGeometry y="78" width="160" height="52" as="geometry" />
        </mxCell>
        <mxCell id="bwdSb6TmyLtc6f7Dp-ff-41" value="Favorites for movie" style="swimlane;fontStyle=1;align=center;verticalAlign=top;childLayout=stackLayout;horizontal=1;startSize=26;horizontalStack=0;resizeParent=1;resizeParentMax=0;resizeLast=0;collapsible=1;marginBottom=0;whiteSpace=wrap;html=1;" parent="1" vertex="1">
          <mxGeometry x="800" y="-10" width="160" height="130" as="geometry" />
        </mxCell>
        <mxCell id="bwdSb6TmyLtc6f7Dp-ff-42" value="- Favoritesid: int&lt;div&gt;- username: string&lt;/div&gt;" style="text;strokeColor=none;fillColor=none;align=left;verticalAlign=top;spacingLeft=4;spacingRight=4;overflow=hidden;rotatable=0;points=[[0,0.5],[1,0.5]];portConstraint=eastwest;whiteSpace=wrap;html=1;" parent="bwdSb6TmyLtc6f7Dp-ff-41" vertex="1">
          <mxGeometry y="26" width="160" height="44" as="geometry" />
        </mxCell>
        <mxCell id="bwdSb6TmyLtc6f7Dp-ff-43" value="" style="line;strokeWidth=1;fillColor=none;align=left;verticalAlign=middle;spacingTop=-1;spacingLeft=3;spacingRight=3;rotatable=0;labelPosition=right;points=[];portConstraint=eastwest;strokeColor=inherit;" parent="bwdSb6TmyLtc6f7Dp-ff-41" vertex="1">
          <mxGeometry y="70" width="160" height="8" as="geometry" />
        </mxCell>
        <mxCell id="bwdSb6TmyLtc6f7Dp-ff-44" value="+ delete()&lt;div&gt;+ add()&lt;/div&gt;&lt;div&gt;+ edit()&amp;nbsp;&lt;/div&gt;" style="text;strokeColor=none;fillColor=none;align=left;verticalAlign=top;spacingLeft=4;spacingRight=4;overflow=hidden;rotatable=0;points=[[0,0.5],[1,0.5]];portConstraint=eastwest;whiteSpace=wrap;html=1;" parent="bwdSb6TmyLtc6f7Dp-ff-41" vertex="1">
          <mxGeometry y="78" width="160" height="52" as="geometry" />
        </mxCell>
        <mxCell id="bwdSb6TmyLtc6f7Dp-ff-45" value="Favorites for TV series" style="swimlane;fontStyle=1;align=center;verticalAlign=top;childLayout=stackLayout;horizontal=1;startSize=26;horizontalStack=0;resizeParent=1;resizeParentMax=0;resizeLast=0;collapsible=1;marginBottom=0;whiteSpace=wrap;html=1;" parent="1" vertex="1">
          <mxGeometry x="1440" y="470" width="160" height="130" as="geometry" />
        </mxCell>
        <mxCell id="bwdSb6TmyLtc6f7Dp-ff-46" value="- Favoritesid: int&lt;div&gt;- username: string&lt;/div&gt;" style="text;strokeColor=none;fillColor=none;align=left;verticalAlign=top;spacingLeft=4;spacingRight=4;overflow=hidden;rotatable=0;points=[[0,0.5],[1,0.5]];portConstraint=eastwest;whiteSpace=wrap;html=1;" parent="bwdSb6TmyLtc6f7Dp-ff-45" vertex="1">
          <mxGeometry y="26" width="160" height="44" as="geometry" />
        </mxCell>
        <mxCell id="bwdSb6TmyLtc6f7Dp-ff-47" value="" style="line;strokeWidth=1;fillColor=none;align=left;verticalAlign=middle;spacingTop=-1;spacingLeft=3;spacingRight=3;rotatable=0;labelPosition=right;points=[];portConstraint=eastwest;strokeColor=inherit;" parent="bwdSb6TmyLtc6f7Dp-ff-45" vertex="1">
          <mxGeometry y="70" width="160" height="8" as="geometry" />
        </mxCell>
        <mxCell id="bwdSb6TmyLtc6f7Dp-ff-48" value="+ delete()&lt;div&gt;+ add()&lt;/div&gt;&lt;div&gt;+ edit()&amp;nbsp;&lt;/div&gt;" style="text;strokeColor=none;fillColor=none;align=left;verticalAlign=top;spacingLeft=4;spacingRight=4;overflow=hidden;rotatable=0;points=[[0,0.5],[1,0.5]];portConstraint=eastwest;whiteSpace=wrap;html=1;" parent="bwdSb6TmyLtc6f7Dp-ff-45" vertex="1">
          <mxGeometry y="78" width="160" height="52" as="geometry" />
        </mxCell>
        <mxCell id="bwdSb6TmyLtc6f7Dp-ff-49" value="Notes for movies" style="swimlane;fontStyle=1;align=center;verticalAlign=top;childLayout=stackLayout;horizontal=1;startSize=26;horizontalStack=0;resizeParent=1;resizeParentMax=0;resizeLast=0;collapsible=1;marginBottom=0;whiteSpace=wrap;html=1;" parent="1" vertex="1">
          <mxGeometry x="1000" y="-80" width="160" height="200" as="geometry" />
        </mxCell>
        <mxCell id="bwdSb6TmyLtc6f7Dp-ff-50" value="&lt;div&gt;- notesid: int&lt;/div&gt;&lt;div&gt;- notesname: string&lt;/div&gt;&lt;div&gt;- posts: string&lt;/div&gt;&lt;div&gt;&lt;span style=&quot;background-color: transparent; color: light-dark(rgb(0, 0, 0), rgb(255, 255, 255));&quot;&gt;- lists: string&lt;/span&gt;&lt;/div&gt;&lt;div&gt;- datе: int&lt;/div&gt;&lt;div&gt;- movie: string&lt;/div&gt;&lt;div&gt;&lt;br&gt;&lt;/div&gt;" style="text;strokeColor=none;fillColor=none;align=left;verticalAlign=top;spacingLeft=4;spacingRight=4;overflow=hidden;rotatable=0;points=[[0,0.5],[1,0.5]];portConstraint=eastwest;whiteSpace=wrap;html=1;" parent="bwdSb6TmyLtc6f7Dp-ff-49" vertex="1">
          <mxGeometry y="26" width="160" height="94" as="geometry" />
        </mxCell>
        <mxCell id="bwdSb6TmyLtc6f7Dp-ff-51" value="" style="line;strokeWidth=1;fillColor=none;align=left;verticalAlign=middle;spacingTop=-1;spacingLeft=3;spacingRight=3;rotatable=0;labelPosition=right;points=[];portConstraint=eastwest;strokeColor=inherit;" parent="bwdSb6TmyLtc6f7Dp-ff-49" vertex="1">
          <mxGeometry y="120" width="160" height="8" as="geometry" />
        </mxCell>
        <mxCell id="bwdSb6TmyLtc6f7Dp-ff-52" value="+ delete()&lt;div&gt;+ add()&lt;/div&gt;&lt;div&gt;+edit()&lt;span style=&quot;background-color: transparent; color: light-dark(rgb(0, 0, 0), rgb(255, 255, 255));&quot;&gt;&amp;nbsp;&lt;/span&gt;&lt;/div&gt;&lt;div&gt;+ view()&lt;/div&gt;" style="text;strokeColor=none;fillColor=none;align=left;verticalAlign=top;spacingLeft=4;spacingRight=4;overflow=hidden;rotatable=0;points=[[0,0.5],[1,0.5]];portConstraint=eastwest;whiteSpace=wrap;html=1;" parent="bwdSb6TmyLtc6f7Dp-ff-49" vertex="1">
          <mxGeometry y="128" width="160" height="72" as="geometry" />
        </mxCell>
        <mxCell id="bwdSb6TmyLtc6f7Dp-ff-53" value="Notes for TV series" style="swimlane;fontStyle=1;align=center;verticalAlign=top;childLayout=stackLayout;horizontal=1;startSize=26;horizontalStack=0;resizeParent=1;resizeParentMax=0;resizeLast=0;collapsible=1;marginBottom=0;whiteSpace=wrap;html=1;" parent="1" vertex="1">
          <mxGeometry x="1400" y="640" width="160" height="200" as="geometry" />
        </mxCell>
        <mxCell id="bwdSb6TmyLtc6f7Dp-ff-54" value="&lt;div&gt;- notesid: int&lt;/div&gt;&lt;div&gt;- notesname: string&lt;/div&gt;&lt;div&gt;- posts: string&lt;/div&gt;&lt;div&gt;- lists: string&lt;/div&gt;&lt;div&gt;- datе: int&lt;/div&gt;&lt;div&gt;- series: string&lt;/div&gt;&lt;div&gt;&lt;br&gt;&lt;/div&gt;" style="text;strokeColor=none;fillColor=none;align=left;verticalAlign=top;spacingLeft=4;spacingRight=4;overflow=hidden;rotatable=0;points=[[0,0.5],[1,0.5]];portConstraint=eastwest;whiteSpace=wrap;html=1;" parent="bwdSb6TmyLtc6f7Dp-ff-53" vertex="1">
          <mxGeometry y="26" width="160" height="94" as="geometry" />
        </mxCell>
        <mxCell id="bwdSb6TmyLtc6f7Dp-ff-55" value="" style="line;strokeWidth=1;fillColor=none;align=left;verticalAlign=middle;spacingTop=-1;spacingLeft=3;spacingRight=3;rotatable=0;labelPosition=right;points=[];portConstraint=eastwest;strokeColor=inherit;" parent="bwdSb6TmyLtc6f7Dp-ff-53" vertex="1">
          <mxGeometry y="120" width="160" height="8" as="geometry" />
        </mxCell>
        <mxCell id="bwdSb6TmyLtc6f7Dp-ff-56" value="+ delete()&lt;div&gt;+ add()&lt;/div&gt;&lt;div&gt;+edit()&lt;span style=&quot;background-color: transparent; color: light-dark(rgb(0, 0, 0), rgb(255, 255, 255));&quot;&gt;&amp;nbsp;&lt;/span&gt;&lt;/div&gt;&lt;div&gt;+ view()&lt;/div&gt;" style="text;strokeColor=none;fillColor=none;align=left;verticalAlign=top;spacingLeft=4;spacingRight=4;overflow=hidden;rotatable=0;points=[[0,0.5],[1,0.5]];portConstraint=eastwest;whiteSpace=wrap;html=1;" parent="bwdSb6TmyLtc6f7Dp-ff-53" vertex="1">
          <mxGeometry y="128" width="160" height="72" as="geometry" />
        </mxCell>
        <mxCell id="FrtM-ancPupb32fnJax2-1" value="Bookmarks for the series" style="swimlane;fontStyle=1;align=center;verticalAlign=top;childLayout=stackLayout;horizontal=1;startSize=26;horizontalStack=0;resizeParent=1;resizeParentMax=0;resizeLast=0;collapsible=1;marginBottom=0;whiteSpace=wrap;html=1;" parent="1" vertex="1">
          <mxGeometry x="1320" y="1200" width="160" height="180" as="geometry" />
        </mxCell>
        <mxCell id="FrtM-ancPupb32fnJax2-2" value="- bookmarksid: int&lt;div&gt;-&amp;nbsp;&lt;span style=&quot;background-color: transparent; color: light-dark(rgb(0, 0, 0), rgb(255, 255, 255));&quot;&gt;bookmarksname: string&lt;/span&gt;&lt;/div&gt;&lt;div&gt;&lt;span style=&quot;background-color: transparent; color: light-dark(rgb(0, 0, 0), rgb(255, 255, 255));&quot;&gt;-&amp;nbsp;&lt;/span&gt;&lt;span style=&quot;background-color: transparent;&quot;&gt;episode number&lt;/span&gt;&lt;span style=&quot;background-color: transparent; color: light-dark(rgb(0, 0, 0), rgb(255, 255, 255));&quot;&gt;: int&lt;/span&gt;&lt;/div&gt;&lt;div&gt;&lt;span style=&quot;background-color: transparent; color: light-dark(rgb(0, 0, 0), rgb(255, 255, 255));&quot;&gt;- seson number: int&lt;/span&gt;&lt;/div&gt;&lt;div&gt;&lt;span style=&quot;background-color: transparent;&quot;&gt;-&lt;/span&gt;&lt;span style=&quot;background-color: transparent;&quot;&gt;&amp;nbsp;title: string&lt;/span&gt;&lt;/div&gt;" style="text;strokeColor=none;fillColor=none;align=left;verticalAlign=top;spacingLeft=4;spacingRight=4;overflow=hidden;rotatable=0;points=[[0,0.5],[1,0.5]];portConstraint=eastwest;whiteSpace=wrap;html=1;" parent="FrtM-ancPupb32fnJax2-1" vertex="1">
          <mxGeometry y="26" width="160" height="84" as="geometry" />
        </mxCell>
        <mxCell id="FrtM-ancPupb32fnJax2-3" value="" style="line;strokeWidth=1;fillColor=none;align=left;verticalAlign=middle;spacingTop=-1;spacingLeft=3;spacingRight=3;rotatable=0;labelPosition=right;points=[];portConstraint=eastwest;strokeColor=inherit;" parent="FrtM-ancPupb32fnJax2-1" vertex="1">
          <mxGeometry y="110" width="160" height="8" as="geometry" />
        </mxCell>
        <mxCell id="FrtM-ancPupb32fnJax2-4" value="+ delete()&lt;div&gt;+ add()&lt;/div&gt;&lt;div&gt;+ edit()&amp;nbsp;&lt;/div&gt;" style="text;strokeColor=none;fillColor=none;align=left;verticalAlign=top;spacingLeft=4;spacingRight=4;overflow=hidden;rotatable=0;points=[[0,0.5],[1,0.5]];portConstraint=eastwest;whiteSpace=wrap;html=1;" parent="FrtM-ancPupb32fnJax2-1" vertex="1">
          <mxGeometry y="118" width="160" height="62" as="geometry" />
        </mxCell>
        <mxCell id="FrtM-ancPupb32fnJax2-5" value="Book Recommendations" style="swimlane;fontStyle=1;align=center;verticalAlign=top;childLayout=stackLayout;horizontal=1;startSize=26;horizontalStack=0;resizeParent=1;resizeParentMax=0;resizeLast=0;collapsible=1;marginBottom=0;whiteSpace=wrap;html=1;" parent="1" vertex="1">
          <mxGeometry x="440" y="850" width="160" height="240" as="geometry" />
        </mxCell>
        <mxCell id="FrtM-ancPupb32fnJax2-6" value="- bookid: int&lt;div&gt;- bookname: string&lt;/div&gt;&lt;div&gt;- photo: image&lt;/div&gt;&lt;div&gt;- url: string&lt;/div&gt;&lt;div&gt;- description: string&lt;/div&gt;&lt;div&gt;- rating: int&lt;/div&gt;&lt;div&gt;&lt;div&gt;- language: string&lt;/div&gt;&lt;/div&gt;&lt;div&gt;-&amp;nbsp;author: string&lt;/div&gt;&lt;div&gt;-&amp;nbsp;number of pages: int&lt;/div&gt;&lt;div&gt;&lt;div&gt;- genre: string&lt;/div&gt;&lt;div&gt;- age: int&lt;/div&gt;&lt;/div&gt;&lt;div&gt;&lt;br&gt;&lt;/div&gt;&lt;div&gt;&lt;br&gt;&lt;/div&gt;&lt;div&gt;&lt;br&gt;&lt;/div&gt;" style="text;strokeColor=none;fillColor=none;align=left;verticalAlign=top;spacingLeft=4;spacingRight=4;overflow=hidden;rotatable=0;points=[[0,0.5],[1,0.5]];portConstraint=eastwest;whiteSpace=wrap;html=1;" parent="FrtM-ancPupb32fnJax2-5" vertex="1">
          <mxGeometry y="26" width="160" height="174" as="geometry" />
        </mxCell>
        <mxCell id="FrtM-ancPupb32fnJax2-7" value="" style="line;strokeWidth=1;fillColor=none;align=left;verticalAlign=middle;spacingTop=-1;spacingLeft=3;spacingRight=3;rotatable=0;labelPosition=right;points=[];portConstraint=eastwest;strokeColor=inherit;" parent="FrtM-ancPupb32fnJax2-5" vertex="1">
          <mxGeometry y="200" width="160" height="8" as="geometry" />
        </mxCell>
        <mxCell id="FrtM-ancPupb32fnJax2-8" value="+ follow the link()" style="text;strokeColor=none;fillColor=none;align=left;verticalAlign=top;spacingLeft=4;spacingRight=4;overflow=hidden;rotatable=0;points=[[0,0.5],[1,0.5]];portConstraint=eastwest;whiteSpace=wrap;html=1;" parent="FrtM-ancPupb32fnJax2-5" vertex="1">
          <mxGeometry y="208" width="160" height="32" as="geometry" />
        </mxCell>
        <mxCell id="FrtM-ancPupb32fnJax2-9" value="Movie Recommendations" style="swimlane;fontStyle=1;align=center;verticalAlign=top;childLayout=stackLayout;horizontal=1;startSize=26;horizontalStack=0;resizeParent=1;resizeParentMax=0;resizeLast=0;collapsible=1;marginBottom=0;whiteSpace=wrap;html=1;" parent="1" vertex="1">
          <mxGeometry x="1200" y="-120" width="160" height="240" as="geometry" />
        </mxCell>
        <mxCell id="FrtM-ancPupb32fnJax2-10" value="- movieid: int&lt;div&gt;- moviename: string&lt;/div&gt;&lt;div&gt;- photo: image&lt;/div&gt;&lt;div&gt;&lt;div&gt;- url: string&lt;/div&gt;&lt;div&gt;- description: string&lt;/div&gt;&lt;/div&gt;&lt;div&gt;&lt;div&gt;- rating: int&lt;/div&gt;&lt;div&gt;- сountry: string&lt;/div&gt;&lt;div&gt;-&amp;nbsp;year: int&lt;/div&gt;&lt;div&gt;- genre: string&lt;/div&gt;&lt;div&gt;- age: int&lt;/div&gt;&lt;div&gt;- time: int&lt;/div&gt;&lt;/div&gt;" style="text;strokeColor=none;fillColor=none;align=left;verticalAlign=top;spacingLeft=4;spacingRight=4;overflow=hidden;rotatable=0;points=[[0,0.5],[1,0.5]];portConstraint=eastwest;whiteSpace=wrap;html=1;" parent="FrtM-ancPupb32fnJax2-9" vertex="1">
          <mxGeometry y="26" width="160" height="174" as="geometry" />
        </mxCell>
        <mxCell id="FrtM-ancPupb32fnJax2-11" value="" style="line;strokeWidth=1;fillColor=none;align=left;verticalAlign=middle;spacingTop=-1;spacingLeft=3;spacingRight=3;rotatable=0;labelPosition=right;points=[];portConstraint=eastwest;strokeColor=inherit;" parent="FrtM-ancPupb32fnJax2-9" vertex="1">
          <mxGeometry y="200" width="160" height="8" as="geometry" />
        </mxCell>
        <mxCell id="FrtM-ancPupb32fnJax2-12" value="+ follow the link()" style="text;strokeColor=none;fillColor=none;align=left;verticalAlign=top;spacingLeft=4;spacingRight=4;overflow=hidden;rotatable=0;points=[[0,0.5],[1,0.5]];portConstraint=eastwest;whiteSpace=wrap;html=1;" parent="FrtM-ancPupb32fnJax2-9" vertex="1">
          <mxGeometry y="208" width="160" height="32" as="geometry" />
        </mxCell>
        <mxCell id="FrtM-ancPupb32fnJax2-13" value="TV Series Recommendations" style="swimlane;fontStyle=1;align=center;verticalAlign=top;childLayout=stackLayout;horizontal=1;startSize=40;horizontalStack=0;resizeParent=1;resizeParentMax=0;resizeLast=0;collapsible=1;marginBottom=0;whiteSpace=wrap;html=1;" parent="1" vertex="1">
          <mxGeometry x="1360" y="880" width="160" height="280" as="geometry" />
        </mxCell>
        <mxCell id="FrtM-ancPupb32fnJax2-14" value="- seriesid: int&lt;div&gt;- seriesname: string&lt;/div&gt;&lt;div&gt;- photo: image&lt;/div&gt;&lt;div&gt;&lt;div&gt;- url: string&lt;/div&gt;&lt;div&gt;- description: string&lt;/div&gt;&lt;/div&gt;&lt;div&gt;&lt;div&gt;- rating: int&lt;/div&gt;&lt;div&gt;- сountry: string&lt;/div&gt;&lt;div&gt;-&amp;nbsp;year: int&lt;/div&gt;&lt;div&gt;- genre: string&lt;/div&gt;&lt;div&gt;- age: int&lt;/div&gt;&lt;div&gt;- time: int&lt;/div&gt;&lt;div&gt;-&amp;nbsp;number of episodes: int&lt;/div&gt;&lt;div&gt;-&amp;nbsp;number of seasons: int&lt;/div&gt;&lt;div&gt;&lt;br&gt;&lt;/div&gt;&lt;div&gt;&lt;br&gt;&lt;/div&gt;&lt;/div&gt;" style="text;strokeColor=none;fillColor=none;align=left;verticalAlign=top;spacingLeft=4;spacingRight=4;overflow=hidden;rotatable=0;points=[[0,0.5],[1,0.5]];portConstraint=eastwest;whiteSpace=wrap;html=1;" parent="FrtM-ancPupb32fnJax2-13" vertex="1">
          <mxGeometry y="40" width="160" height="200" as="geometry" />
        </mxCell>
        <mxCell id="FrtM-ancPupb32fnJax2-15" value="" style="line;strokeWidth=1;fillColor=none;align=left;verticalAlign=middle;spacingTop=-1;spacingLeft=3;spacingRight=3;rotatable=0;labelPosition=right;points=[];portConstraint=eastwest;strokeColor=inherit;" parent="FrtM-ancPupb32fnJax2-13" vertex="1">
          <mxGeometry y="240" width="160" height="8" as="geometry" />
        </mxCell>
        <mxCell id="FrtM-ancPupb32fnJax2-16" value="+ follow the link()" style="text;strokeColor=none;fillColor=none;align=left;verticalAlign=top;spacingLeft=4;spacingRight=4;overflow=hidden;rotatable=0;points=[[0,0.5],[1,0.5]];portConstraint=eastwest;whiteSpace=wrap;html=1;" parent="FrtM-ancPupb32fnJax2-13" vertex="1">
          <mxGeometry y="248" width="160" height="32" as="geometry" />
        </mxCell>
        <mxCell id="oMeEiNY2kgjxzq4-8492-1" value="" style="endArrow=classic;html=1;rounded=0;exitX=0.5;exitY=1;exitDx=0;exitDy=0;entryX=0.5;entryY=0;entryDx=0;entryDy=0;" edge="1" parent="1" source="bwdSb6TmyLtc6f7Dp-ff-1" target="bwdSb6TmyLtc6f7Dp-ff-5">
          <mxGeometry width="50" height="50" relative="1" as="geometry">
            <mxPoint x="990" y="630" as="sourcePoint" />
            <mxPoint x="1110" y="590" as="targetPoint" />
          </mxGeometry>
        </mxCell>
        <mxCell id="oMeEiNY2kgjxzq4-8492-2" value="" style="endArrow=classic;html=1;rounded=0;exitX=0;exitY=0.5;exitDx=0;exitDy=0;entryX=1;entryY=0.5;entryDx=0;entryDy=0;endFill=1;startArrow=none;startFill=0;" edge="1" parent="1" source="bwdSb6TmyLtc6f7Dp-ff-4" target="bwdSb6TmyLtc6f7Dp-ff-18">
          <mxGeometry width="50" height="50" relative="1" as="geometry">
            <mxPoint x="800" y="510" as="sourcePoint" />
            <mxPoint x="850" y="460" as="targetPoint" />
            <Array as="points">
              <mxPoint x="680" y="560" />
              <mxPoint x="680" y="230" />
            </Array>
          </mxGeometry>
        </mxCell>
        <mxCell id="oMeEiNY2kgjxzq4-8492-3" value="" style="endArrow=classic;html=1;rounded=0;endFill=1;entryX=1;entryY=0.5;entryDx=0;entryDy=0;startFill=0;" edge="1" parent="1" target="bwdSb6TmyLtc6f7Dp-ff-34">
          <mxGeometry width="50" height="50" relative="1" as="geometry">
            <mxPoint x="680" y="560" as="sourcePoint" />
            <mxPoint x="770" y="650" as="targetPoint" />
            <Array as="points">
              <mxPoint x="680" y="528" />
            </Array>
          </mxGeometry>
        </mxCell>
        <mxCell id="oMeEiNY2kgjxzq4-8492-4" value="" style="endArrow=classic;html=1;rounded=0;endFill=1;exitX=0.5;exitY=0;exitDx=0;exitDy=0;entryX=0.5;entryY=1;entryDx=0;entryDy=0;" edge="1" parent="1" source="bwdSb6TmyLtc6f7Dp-ff-1" target="bwdSb6TmyLtc6f7Dp-ff-9">
          <mxGeometry width="50" height="50" relative="1" as="geometry">
            <mxPoint x="900" y="410" as="sourcePoint" />
            <mxPoint x="790" y="190" as="targetPoint" />
            <Array as="points">
              <mxPoint x="980" y="160" />
              <mxPoint x="680" y="160" />
            </Array>
          </mxGeometry>
        </mxCell>
        <mxCell id="oMeEiNY2kgjxzq4-8492-5" value="" style="endArrow=classic;html=1;rounded=0;endFill=1;entryX=1;entryY=0.5;entryDx=0;entryDy=0;startFill=0;" edge="1" parent="1" target="bwdSb6TmyLtc6f7Dp-ff-26">
          <mxGeometry width="50" height="50" relative="1" as="geometry">
            <mxPoint x="680" y="560" as="sourcePoint" />
            <mxPoint x="800" y="650" as="targetPoint" />
            <Array as="points">
              <mxPoint x="680" y="708" />
            </Array>
          </mxGeometry>
        </mxCell>
        <mxCell id="oMeEiNY2kgjxzq4-8492-6" value="" style="endArrow=classic;html=1;rounded=0;endFill=1;entryX=1;entryY=0.5;entryDx=0;entryDy=0;startFill=0;" edge="1" parent="1" target="FrtM-ancPupb32fnJax2-6">
          <mxGeometry width="50" height="50" relative="1" as="geometry">
            <mxPoint x="680" y="690" as="sourcePoint" />
            <mxPoint x="860" y="790" as="targetPoint" />
            <Array as="points">
              <mxPoint x="680" y="963" />
            </Array>
          </mxGeometry>
        </mxCell>
        <mxCell id="oMeEiNY2kgjxzq4-8492-7" value="" style="endArrow=classic;html=1;rounded=0;endFill=1;entryX=1;entryY=0.5;entryDx=0;entryDy=0;startFill=0;" edge="1" parent="1" target="bwdSb6TmyLtc6f7Dp-ff-22">
          <mxGeometry width="50" height="50" relative="1" as="geometry">
            <mxPoint x="680" y="960" as="sourcePoint" />
            <mxPoint x="750" y="1170" as="targetPoint" />
            <Array as="points">
              <mxPoint x="680" y="1203" />
            </Array>
          </mxGeometry>
        </mxCell>
        <mxCell id="oMeEiNY2kgjxzq4-8492-8" value="" style="endArrow=classic;html=1;rounded=0;endFill=1;entryX=0.5;entryY=1;entryDx=0;entryDy=0;" edge="1" parent="1" target="bwdSb6TmyLtc6f7Dp-ff-41">
          <mxGeometry width="50" height="50" relative="1" as="geometry">
            <mxPoint x="880" y="160" as="sourcePoint" />
            <mxPoint x="930" y="250" as="targetPoint" />
          </mxGeometry>
        </mxCell>
        <mxCell id="oMeEiNY2kgjxzq4-8492-9" value="" style="endArrow=classic;html=1;rounded=0;endFill=1;entryX=0.5;entryY=1;entryDx=0;entryDy=0;" edge="1" parent="1" target="bwdSb6TmyLtc6f7Dp-ff-49">
          <mxGeometry width="50" height="50" relative="1" as="geometry">
            <mxPoint x="980" y="160" as="sourcePoint" />
            <mxPoint x="1150" y="220" as="targetPoint" />
            <Array as="points">
              <mxPoint x="1080" y="160" />
            </Array>
          </mxGeometry>
        </mxCell>
        <mxCell id="oMeEiNY2kgjxzq4-8492-10" value="" style="endArrow=classic;html=1;rounded=0;endFill=1;entryX=0.5;entryY=1;entryDx=0;entryDy=0;" edge="1" parent="1" target="FrtM-ancPupb32fnJax2-9">
          <mxGeometry width="50" height="50" relative="1" as="geometry">
            <mxPoint x="1080" y="160" as="sourcePoint" />
            <mxPoint x="1250" y="220" as="targetPoint" />
            <Array as="points">
              <mxPoint x="1280" y="160" />
            </Array>
          </mxGeometry>
        </mxCell>
        <mxCell id="oMeEiNY2kgjxzq4-8492-11" value="" style="endArrow=classic;html=1;rounded=0;endFill=1;exitX=1;exitY=0.5;exitDx=0;exitDy=0;entryX=0;entryY=0.5;entryDx=0;entryDy=0;" edge="1" parent="1" source="bwdSb6TmyLtc6f7Dp-ff-4" target="bwdSb6TmyLtc6f7Dp-ff-14">
          <mxGeometry width="50" height="50" relative="1" as="geometry">
            <mxPoint x="1180" y="620" as="sourcePoint" />
            <mxPoint x="1230" y="570" as="targetPoint" />
            <Array as="points">
              <mxPoint x="1280" y="560" />
              <mxPoint x="1280" y="218" />
            </Array>
          </mxGeometry>
        </mxCell>
        <mxCell id="oMeEiNY2kgjxzq4-8492-12" value="" style="endArrow=classic;html=1;rounded=0;endFill=1;entryX=0;entryY=0.5;entryDx=0;entryDy=0;" edge="1" parent="1" target="bwdSb6TmyLtc6f7Dp-ff-46">
          <mxGeometry width="50" height="50" relative="1" as="geometry">
            <mxPoint x="1280" y="518" as="sourcePoint" />
            <mxPoint x="1300" y="630" as="targetPoint" />
          </mxGeometry>
        </mxCell>
        <mxCell id="oMeEiNY2kgjxzq4-8492-13" value="" style="endArrow=classic;html=1;rounded=0;endFill=1;entryX=0;entryY=0.5;entryDx=0;entryDy=0;" edge="1" parent="1" target="bwdSb6TmyLtc6f7Dp-ff-54">
          <mxGeometry width="50" height="50" relative="1" as="geometry">
            <mxPoint x="1280" y="560" as="sourcePoint" />
            <mxPoint x="1280" y="700" as="targetPoint" />
            <Array as="points">
              <mxPoint x="1280" y="713" />
            </Array>
          </mxGeometry>
        </mxCell>
        <mxCell id="oMeEiNY2kgjxzq4-8492-14" value="" style="endArrow=classic;html=1;rounded=0;endFill=1;entryX=0;entryY=0.5;entryDx=0;entryDy=0;" edge="1" parent="1" target="FrtM-ancPupb32fnJax2-14">
          <mxGeometry width="50" height="50" relative="1" as="geometry">
            <mxPoint x="1280" y="710" as="sourcePoint" />
            <mxPoint x="1240" y="830" as="targetPoint" />
            <Array as="points">
              <mxPoint x="1280" y="1020" />
            </Array>
          </mxGeometry>
        </mxCell>
        <mxCell id="oMeEiNY2kgjxzq4-8492-15" value="" style="endArrow=classic;html=1;rounded=0;endFill=1;entryX=0;entryY=0.5;entryDx=0;entryDy=0;" edge="1" parent="1" target="FrtM-ancPupb32fnJax2-2">
          <mxGeometry width="50" height="50" relative="1" as="geometry">
            <mxPoint x="1280" y="1020" as="sourcePoint" />
            <mxPoint x="1270" y="1080" as="targetPoint" />
            <Array as="points">
              <mxPoint x="1280" y="1268" />
            </Array>
          </mxGeometry>
        </mxCell>
        <mxCell id="oMeEiNY2kgjxzq4-8492-17" value="" style="endArrow=none;dashed=1;html=1;rounded=0;endFill=0;exitX=1;exitY=0.018;exitDx=0;exitDy=0;exitPerimeter=0;entryX=0.5;entryY=0;entryDx=0;entryDy=0;startArrow=open;startFill=0;" edge="1" parent="1" source="bwdSb6TmyLtc6f7Dp-ff-10" target="bwdSb6TmyLtc6f7Dp-ff-41">
          <mxGeometry width="50" height="50" relative="1" as="geometry">
            <mxPoint x="780" y="-170" as="sourcePoint" />
            <mxPoint x="900" y="-170" as="targetPoint" />
            <Array as="points">
              <mxPoint x="880" y="-170" />
            </Array>
          </mxGeometry>
        </mxCell>
        <mxCell id="oMeEiNY2kgjxzq4-8492-21" value="" style="endArrow=none;dashed=1;html=1;rounded=0;endFill=0;entryX=0.5;entryY=0;entryDx=0;entryDy=0;startFill=0;" edge="1" parent="1" target="bwdSb6TmyLtc6f7Dp-ff-49">
          <mxGeometry width="50" height="50" relative="1" as="geometry">
            <mxPoint x="880" y="-170" as="sourcePoint" />
            <mxPoint x="950" y="-170" as="targetPoint" />
            <Array as="points">
              <mxPoint x="1080" y="-170" />
            </Array>
          </mxGeometry>
        </mxCell>
        <mxCell id="oMeEiNY2kgjxzq4-8492-22" value="" style="endArrow=none;dashed=1;html=1;rounded=0;endFill=0;entryX=0.5;entryY=0;entryDx=0;entryDy=0;startFill=0;" edge="1" parent="1" target="FrtM-ancPupb32fnJax2-9">
          <mxGeometry width="50" height="50" relative="1" as="geometry">
            <mxPoint x="1080" y="-170" as="sourcePoint" />
            <mxPoint x="1170" y="-170" as="targetPoint" />
            <Array as="points">
              <mxPoint x="1280" y="-170" />
            </Array>
          </mxGeometry>
        </mxCell>
        <mxCell id="oMeEiNY2kgjxzq4-8492-23" value="" style="endArrow=none;dashed=1;html=1;rounded=0;endFill=0;exitX=1;exitY=0.998;exitDx=0;exitDy=0;exitPerimeter=0;entryX=1;entryY=0.5;entryDx=0;entryDy=0;startFill=0;startArrow=open;" edge="1" parent="1" source="bwdSb6TmyLtc6f7Dp-ff-16" target="bwdSb6TmyLtc6f7Dp-ff-46">
          <mxGeometry width="50" height="50" relative="1" as="geometry">
            <mxPoint x="1650" y="530" as="sourcePoint" />
            <mxPoint x="1700" y="480" as="targetPoint" />
            <Array as="points">
              <mxPoint x="1640" y="518" />
            </Array>
          </mxGeometry>
        </mxCell>
        <mxCell id="oMeEiNY2kgjxzq4-8492-24" value="" style="endArrow=none;dashed=1;html=1;rounded=0;endFill=0;entryX=1;entryY=0.5;entryDx=0;entryDy=0;startFill=0;" edge="1" parent="1" target="bwdSb6TmyLtc6f7Dp-ff-54">
          <mxGeometry width="50" height="50" relative="1" as="geometry">
            <mxPoint x="1640" y="520" as="sourcePoint" />
            <mxPoint x="1670" y="640" as="targetPoint" />
            <Array as="points">
              <mxPoint x="1640" y="713" />
            </Array>
          </mxGeometry>
        </mxCell>
        <mxCell id="oMeEiNY2kgjxzq4-8492-25" value="" style="endArrow=none;dashed=1;html=1;rounded=0;endFill=0;entryX=1;entryY=0.5;entryDx=0;entryDy=0;startFill=0;" edge="1" parent="1" target="FrtM-ancPupb32fnJax2-14">
          <mxGeometry width="50" height="50" relative="1" as="geometry">
            <mxPoint x="1640" y="710" as="sourcePoint" />
            <mxPoint x="1650" y="820" as="targetPoint" />
            <Array as="points">
              <mxPoint x="1640" y="1020" />
            </Array>
          </mxGeometry>
        </mxCell>
        <mxCell id="oMeEiNY2kgjxzq4-8492-26" value="" style="endArrow=none;dashed=1;html=1;rounded=0;endFill=0;entryX=1;entryY=0.5;entryDx=0;entryDy=0;startFill=0;" edge="1" parent="1" target="FrtM-ancPupb32fnJax2-2">
          <mxGeometry width="50" height="50" relative="1" as="geometry">
            <mxPoint x="1640" y="1020" as="sourcePoint" />
            <mxPoint x="1640" y="1140" as="targetPoint" />
            <Array as="points">
              <mxPoint x="1640" y="1268" />
            </Array>
          </mxGeometry>
        </mxCell>
        <mxCell id="oMeEiNY2kgjxzq4-8492-27" value="" style="endArrow=none;dashed=1;html=1;rounded=0;endFill=0;exitX=0.001;exitY=0.997;exitDx=0;exitDy=0;exitPerimeter=0;entryX=0;entryY=0.5;entryDx=0;entryDy=0;startArrow=open;startFill=0;" edge="1" parent="1" source="bwdSb6TmyLtc6f7Dp-ff-20" target="bwdSb6TmyLtc6f7Dp-ff-34">
          <mxGeometry width="50" height="50" relative="1" as="geometry">
            <mxPoint x="300" y="520" as="sourcePoint" />
            <mxPoint x="350" y="470" as="targetPoint" />
            <Array as="points">
              <mxPoint x="320" y="528" />
            </Array>
          </mxGeometry>
        </mxCell>
        <mxCell id="oMeEiNY2kgjxzq4-8492-28" value="" style="endArrow=none;dashed=1;html=1;rounded=0;endFill=0;entryX=0;entryY=0.5;entryDx=0;entryDy=0;startFill=0;" edge="1" parent="1" target="bwdSb6TmyLtc6f7Dp-ff-26">
          <mxGeometry width="50" height="50" relative="1" as="geometry">
            <mxPoint x="320" y="530" as="sourcePoint" />
            <mxPoint x="340" y="620" as="targetPoint" />
            <Array as="points">
              <mxPoint x="320" y="708" />
            </Array>
          </mxGeometry>
        </mxCell>
        <mxCell id="oMeEiNY2kgjxzq4-8492-29" value="" style="endArrow=none;dashed=1;html=1;rounded=0;endFill=0;entryX=0;entryY=0.5;entryDx=0;entryDy=0;startFill=0;" edge="1" parent="1" target="FrtM-ancPupb32fnJax2-6">
          <mxGeometry width="50" height="50" relative="1" as="geometry">
            <mxPoint x="320" y="710" as="sourcePoint" />
            <mxPoint x="380" y="820" as="targetPoint" />
            <Array as="points">
              <mxPoint x="320" y="963" />
            </Array>
          </mxGeometry>
        </mxCell>
        <mxCell id="oMeEiNY2kgjxzq4-8492-30" value="" style="endArrow=none;dashed=1;html=1;rounded=0;endFill=0;entryX=0;entryY=0.5;entryDx=0;entryDy=0;startFill=0;" edge="1" parent="1" target="bwdSb6TmyLtc6f7Dp-ff-22">
          <mxGeometry width="50" height="50" relative="1" as="geometry">
            <mxPoint x="320" y="960" as="sourcePoint" />
            <mxPoint x="390" y="1060" as="targetPoint" />
            <Array as="points">
              <mxPoint x="320" y="1203" />
            </Array>
          </mxGeometry>
        </mxCell>
      </root>
    </mxGraphModel>
  </diagram>
</mxfile>
